<?xml version="1.0" encoding="UTF-8" standalone="no"?>
<!-- Created with Inkscape (http://www.inkscape.org/) -->

<svg
   xmlns:dc="http://purl.org/dc/elements/1.1/"
   xmlns:cc="http://creativecommons.org/ns#"
   xmlns:rdf="http://www.w3.org/1999/02/22-rdf-syntax-ns#"
   xmlns:svg="http://www.w3.org/2000/svg"
   xmlns="http://www.w3.org/2000/svg"
   xmlns:sodipodi="http://sodipodi.sourceforge.net/DTD/sodipodi-0.dtd"
   xmlns:inkscape="http://www.inkscape.org/namespaces/inkscape"
   width="210mm"
   height="297mm"
   viewBox="0 0 210 297"
   version="1.1"
   id="svg8"
   inkscape:version="0.92.4 (5da689c313, 2019-01-14)"
   sodipodi:docname="Logo_FF.svg">
  <defs
     id="defs2">
    <filter
       style="color-interpolation-filters:sRGB;"
       inkscape:label="Drop Shadow"
       id="filter4654">
      <feFlood
         flood-opacity="0.498039"
         flood-color="rgb(0,0,0)"
         result="flood"
         id="feFlood4644" />
      <feComposite
         in="flood"
         in2="SourceGraphic"
         operator="in"
         result="composite1"
         id="feComposite4646" />
      <feGaussianBlur
         in="composite1"
         stdDeviation="4"
         result="blur"
         id="feGaussianBlur4648" />
      <feOffset
         dx="0"
         dy="0"
         result="offset"
         id="feOffset4650" />
      <feComposite
         in="SourceGraphic"
         in2="offset"
         operator="over"
         result="composite2"
         id="feComposite4652" />
    </filter>
    <filter
       style="color-interpolation-filters:sRGB;"
       inkscape:label="Drop Shadow"
       id="filter4678">
      <feFlood
         flood-opacity="0.498039"
         flood-color="rgb(0,0,0)"
         result="flood"
         id="feFlood4668" />
      <feComposite
         in="flood"
         in2="SourceGraphic"
         operator="in"
         result="composite1"
         id="feComposite4670" />
      <feGaussianBlur
         in="composite1"
         stdDeviation="6.5"
         result="blur"
         id="feGaussianBlur4672" />
      <feOffset
         dx="6"
         dy="1.2"
         result="offset"
         id="feOffset4674" />
      <feComposite
         in="SourceGraphic"
         in2="offset"
         operator="over"
         result="composite2"
         id="feComposite4676" />
    </filter>
  </defs>
  <sodipodi:namedview
     id="base"
     pagecolor="#ffffff"
     bordercolor="#666666"
     borderopacity="1.0"
     inkscape:pageopacity="0.0"
     inkscape:pageshadow="2"
     inkscape:zoom="0.98994949"
     inkscape:cx="198.00605"
     inkscape:cy="334.33061"
     inkscape:document-units="mm"
     inkscape:current-layer="layer1"
     showgrid="false"
     inkscape:window-width="1920"
     inkscape:window-height="1138"
     inkscape:window-x="-8"
     inkscape:window-y="-8"
     inkscape:window-maximized="1" />
  <metadata
     id="metadata5">
    <rdf:RDF>
      <cc:Work
         rdf:about="">
        <dc:format>image/svg+xml</dc:format>
        <dc:type
           rdf:resource="http://purl.org/dc/dcmitype/StillImage" />
        <dc:title></dc:title>
      </cc:Work>
    </rdf:RDF>
  </metadata>
  <g
     inkscape:label="Ebene 1"
     inkscape:groupmode="layer"
     id="layer1">
    <g
       aria-label="F"
       style="font-style:normal;font-weight:normal;font-size:10.58333302px;line-height:1.25;font-family:sans-serif;letter-spacing:0px;word-spacing:0px;fill:#000000;fill-opacity:1;stroke:none;stroke-width:0.26458332"
       id="text50" />
    <g
       id="g4683"
       transform="translate(13.630745,56.661139)">
      <rect
         rx="15"
         ry="15"
         y="47.833115"
         x="75.114578"
         height="80"
         width="60"
         id="rect98"
         style="fill:#2a7fff;stroke:#ffffff;stroke-width:1;stroke-miterlimit:4;stroke-dasharray:none;filter:url(#filter4654)" />
      <g
         transform="matrix(1.6424617,0,0,1.6424617,-173.96077,-36.318877)"
         id="text50-2"
         style="font-style:normal;font-weight:normal;font-size:10.58333302px;line-height:1.25;font-family:sans-serif;letter-spacing:0px;word-spacing:0px;fill:#ffffff;fill-opacity:1;stroke:#ffffff;stroke-width:0.26458332;filter:url(#filter4678)"
         aria-label="F">
        <path
           inkscape:connector-curvature="0"
           d="m 172.36174,80.527489 0.81993,-0.923872 h 1.22413 l 1.45511,-7.356317 q -2.36743,0 -3.84562,1.281871 -1.46665,1.270322 -1.46665,3.325932 l 0.0112,0.254064 -2.25193,1.085549 q 0.30026,-3.545353 2.74851,-5.196771 2.45981,-1.651418 7.41404,-1.651418 h 6.66344 l -1.03936,3.268191 h -0.7391 q 0.15018,-0.461934 0.15018,-0.91232 0,-1.50129 -4.7233,-1.50129 h -0.49658 l -1.46664,7.402509 h 5.03508 l -1.14327,1.177935 q -1.84776,-0.254063 -3.51072,-0.254063 h -0.56586 l -0.6698,3.383673 q -0.84304,4.2729 -3.26821,6.825091 -2.41359,2.552191 -5.62405,2.552191 -1.73227,0 -3.09497,-1.304965 l 1.69763,-1.732258 q 0.91231,1.893935 2.93328,1.893935 1.84773,0 2.89865,-1.674516 1.06244,-1.662965 1.90548,-5.90122 l 0.80837,-4.041931 z m -9.28551,-13.457027 0.81993,-0.923871 h 1.22413 l 1.45511,-7.356315 q -2.36743,0 -3.84562,1.281869 -1.46665,1.270322 -1.46665,3.325932 l 0.0112,0.254064 -2.25193,1.085549 q 0.30026,-3.545353 2.74851,-5.196771 2.45981,-1.651418 7.41407,-1.651418 h 6.66341 l -1.03936,3.268191 h -0.7391 q 0.15018,-0.461934 0.15018,-0.91232 0,-1.50129 -4.7233,-1.50129 h -0.49658 l -1.46664,7.402509 h 5.03508 l -1.14327,1.177935 q -1.84773,-0.254064 -3.51072,-0.254064 h -0.56586 l -0.6698,3.383674 q -0.84304,4.2729 -3.26821,6.825091 -2.41359,2.552191 -5.62405,2.552191 -1.73227,0 -3.09497,-1.304965 l 1.69763,-1.732258 q 0.91231,1.893935 2.93328,1.893935 1.84773,0 2.89865,-1.674516 1.06244,-1.662965 1.90548,-5.90122 l 0.80837,-4.041932 z"
           style="font-style:normal;font-variant:normal;font-weight:normal;font-stretch:normal;font-family:'Lucida Calligraphy';-inkscape-font-specification:'Lucida Calligraphy';fill:#ffffff;stroke:#ffffff;stroke-width:0.59127694"
           id="path91" />
      </g>
    </g>
  </g>
</svg>
